<svg width="38" height="38" viewBox="0 0 38 38" fill="none" xmlns="http://www.w3.org/2000/svg">
<g filter="url(#filter0_dd_6852_1271)">
<rect x="3.1" y="2.1" width="31.8" height="31.8" rx="7.9" fill="white"/>
<rect x="3.1" y="2.1" width="31.8" height="31.8" rx="7.9" fill="url(#paint0_linear_6852_1271)"/>
<path fill-rule="evenodd" clip-rule="evenodd" d="M16.526 7C14.6715 7 13.2098 7.49456 11.911 8.73751C10.5979 9.9941 10.0652 11.8669 10.0652 13.6704L10.0652 14.3748C10.0651 19.4347 14.1671 23.5393 19.227 23.5393H19.7939C20.8529 23.5393 21.6754 22.6163 21.5538 21.5642L21.4557 20.7158C21.3792 20.0546 20.8094 19.5692 20.1442 19.5471C17.3648 19.4549 14.8878 18.5817 14.8878 13.6705C14.8879 12.3596 15.3653 11.0581 16.8265 11.0581H21.1963C22.5175 11.0581 23.5889 12.1762 23.5889 13.5086V21.2988V21.98C23.5889 23.6539 22.2319 25.011 20.5579 25.011H18.0004C17.4567 25.011 17.016 25.4517 17.016 25.9953V28.0156C17.016 28.5593 17.4567 29 18.0004 29H21.8727C25.2206 29 27.9347 26.286 27.9347 22.938V12.4322C27.9347 9.43206 25.5026 7 22.5025 7H16.526Z" fill="#262B31"/>
<path d="M20.179 16.2757C20.179 15.8192 20.5491 15.4491 21.0056 15.4491C21.4621 15.4491 21.8322 15.8192 21.8322 16.2757C21.8322 16.7323 21.4621 17.1024 21.0056 17.1024C20.5491 17.1024 20.179 16.7323 20.179 16.2757Z" fill="#262B31"/>
<rect x="3.1" y="2.1" width="31.8" height="31.8" rx="7.9" stroke="#D0D5DD" stroke-width="0.2"/>
</g>
<defs>
<filter id="filter0_dd_6852_1271" x="0" y="0" width="38" height="38" filterUnits="userSpaceOnUse" color-interpolation-filters="sRGB">
<feFlood flood-opacity="0" result="BackgroundImageFix"/>
<feColorMatrix in="SourceAlpha" type="matrix" values="0 0 0 0 0 0 0 0 0 0 0 0 0 0 0 0 0 0 127 0" result="hardAlpha"/>
<feOffset dy="1"/>
<feGaussianBlur stdDeviation="1"/>
<feColorMatrix type="matrix" values="0 0 0 0 0.0627451 0 0 0 0 0.0941176 0 0 0 0 0.156863 0 0 0 0.06 0"/>
<feBlend mode="normal" in2="BackgroundImageFix" result="effect1_dropShadow_6852_1271"/>
<feColorMatrix in="SourceAlpha" type="matrix" values="0 0 0 0 0 0 0 0 0 0 0 0 0 0 0 0 0 0 127 0" result="hardAlpha"/>
<feOffset dy="1"/>
<feGaussianBlur stdDeviation="1.5"/>
<feColorMatrix type="matrix" values="0 0 0 0 0.0627451 0 0 0 0 0.0941176 0 0 0 0 0.156863 0 0 0 0.1 0"/>
<feBlend mode="normal" in2="effect1_dropShadow_6852_1271" result="effect2_dropShadow_6852_1271"/>
<feBlend mode="normal" in="SourceGraphic" in2="effect2_dropShadow_6852_1271" result="shape"/>
</filter>
<linearGradient id="paint0_linear_6852_1271" x1="19" y1="2" x2="19" y2="34" gradientUnits="userSpaceOnUse">
<stop stop-color="white"/>
<stop offset="1" stop-color="#D0D5DD"/>
</linearGradient>
</defs>
</svg>
