<svg width="145" height="38" viewBox="0 0 145 38" fill="none" xmlns="http://www.w3.org/2000/svg">
<g filter="url(#filter0_dd_6852_1269)">
<rect x="3.1" y="2.1" width="31.8" height="31.8" rx="7.9" fill="white"/>
<rect x="3.1" y="2.1" width="31.8" height="31.8" rx="7.9" fill="url(#paint0_linear_6852_1269)"/>
<path fill-rule="evenodd" clip-rule="evenodd" d="M16.526 7C14.6715 7 13.2098 7.49456 11.911 8.73751C10.5979 9.9941 10.0652 11.8669 10.0652 13.6704L10.0652 14.3748C10.0651 19.4347 14.1671 23.5393 19.227 23.5393H19.7939C20.8529 23.5393 21.6754 22.6163 21.5538 21.5642L21.4557 20.7158C21.3792 20.0546 20.8094 19.5692 20.1442 19.5471C17.3648 19.4549 14.8878 18.5817 14.8878 13.6705C14.8879 12.3596 15.3653 11.0581 16.8265 11.0581H21.1963C22.5175 11.0581 23.5889 12.1762 23.5889 13.5086V21.2988V21.98C23.5889 23.6539 22.2319 25.011 20.5579 25.011H18.0004C17.4567 25.011 17.016 25.4517 17.016 25.9953V28.0156C17.016 28.5593 17.4567 29 18.0004 29H21.8727C25.2206 29 27.9347 26.286 27.9347 22.938V12.4322C27.9347 9.43206 25.5026 7 22.5025 7H16.526Z" fill="#262B31"/>
<path d="M20.179 16.2757C20.179 15.8192 20.5491 15.4491 21.0056 15.4491C21.4621 15.4491 21.8322 15.8192 21.8322 16.2757C21.8322 16.7323 21.4621 17.1024 21.0056 17.1024C20.5491 17.1024 20.179 16.7323 20.179 16.2757Z" fill="#262B31"/>
<rect x="3.1" y="2.1" width="31.8" height="31.8" rx="7.9" stroke="#D0D5DD" stroke-width="0.2"/>
</g>
<path d="M84.3191 14.1556C84.3191 13.7277 84.465 13.3678 84.7568 13.076C85.0486 12.7842 85.4085 12.6383 85.8364 12.6383C86.2644 12.6383 86.6243 12.7842 86.9161 13.076C87.2273 13.3678 87.3829 13.7277 87.3829 14.1556C87.3829 14.5836 87.2273 14.9532 86.9161 15.2644C86.6243 15.5562 86.2644 15.7021 85.8364 15.7021C85.389 15.7021 85.0388 15.5465 84.786 15.2353C84.4747 14.9435 84.3191 14.5836 84.3191 14.1556Z" fill="white"/>
<path fill-rule="evenodd" clip-rule="evenodd" d="M68.2699 24.64L68.2725 24.6426L68.2752 24.6452C69.1528 25.4909 70.2412 25.9149 71.506 25.9149H73.5267C74.1289 25.9149 74.6171 25.4267 74.6171 24.8245V23.7991C74.6171 23.1969 74.1289 22.7087 73.5267 22.7087H71.8707C71.4416 22.7087 71.1484 22.591 70.9362 22.3928C70.74 22.1698 70.6162 21.8475 70.6162 21.3719V15.849H73.5183C74.1205 15.849 74.6087 15.3608 74.6087 14.7586V13.7057C74.6087 13.1035 74.1205 12.6153 73.5183 12.6153H70.6162V10.1543C70.6162 9.55206 70.128 9.06386 69.5258 9.06386L68.0479 9.06384C67.4457 9.06384 66.9575 9.55204 66.9575 10.1543L66.9575 21.308C66.9575 22.6371 67.3854 23.7634 68.2699 24.64Z" fill="white"/>
<path d="M61.8458 8.58407C61.5088 8.92105 61.3403 9.33025 61.3403 9.81166C61.3403 10.3171 61.5209 10.7384 61.8819 11.0754C62.2189 11.4364 62.6401 11.6169 63.1456 11.6169C63.627 11.6169 64.0362 11.4485 64.3732 11.1115C64.7343 10.7504 64.9148 10.3171 64.9148 9.81166C64.9148 9.33025 64.7343 8.92105 64.3732 8.58407C64.0362 8.22301 63.627 8.04248 63.1456 8.04248C62.6401 8.04248 62.2069 8.22301 61.8458 8.58407Z" fill="white"/>
<path d="M61.3403 24.8245C61.3403 25.4267 61.8285 25.9149 62.4308 25.9149H63.8244C64.4266 25.9149 64.9148 25.4267 64.9148 24.8245L64.9148 13.7287C64.9148 13.1265 64.4266 12.6383 63.8244 12.6383L62.4309 12.6383C61.8287 12.6383 61.3405 13.1265 61.3405 13.7287L61.3403 24.8245Z" fill="white"/>
<path fill-rule="evenodd" clip-rule="evenodd" d="M92.4247 14.6874L92.4264 14.6892L92.4281 14.691C93.0787 15.3614 93.8707 15.7021 94.7902 15.7021C95.5634 15.7021 96.2169 15.4906 96.7277 15.0493V15.1472C96.7277 15.4407 96.9675 15.6788 97.2635 15.6788H98.0811C98.3771 15.6788 98.617 15.4407 98.617 15.1472V14.8258V6.5316C98.617 6.23801 98.3771 6 98.0811 6L97.2589 6C96.9629 6 96.723 6.23801 96.723 6.5316V9.09809L96.7225 9.21918C96.7225 9.21918 96.6587 9.16926 96.5912 9.11632C96.1137 8.74233 95.5499 8.55766 94.912 8.55766C93.952 8.55766 93.1313 8.88834 92.4663 9.54809C91.7967 10.2124 91.468 11.0693 91.468 12.0954C91.468 13.1293 91.7826 14.0004 92.4247 14.6874ZM96.2492 10.7991L96.2505 10.8005L96.2519 10.802C96.5878 11.1656 96.7578 11.6086 96.7578 12.1472C96.7578 12.7011 96.5913 13.1356 96.2716 13.4726C95.9498 13.8118 95.5602 13.9785 95.086 13.9785C94.6114 13.9785 94.2071 13.8112 93.8601 13.467C93.5196 13.1291 93.3445 12.6965 93.3445 12.1472C93.3445 11.5957 93.5154 11.1548 93.8479 10.8048C94.1962 10.4389 94.599 10.264 95.0686 10.264C95.5376 10.264 95.9259 10.4382 96.2492 10.7991Z" fill="white"/>
<path d="M88.9876 15.7022H89.8636C90.1857 15.7022 90.4468 15.4641 90.4468 15.1705L90.4469 9.08491C90.4469 8.79128 90.1857 8.55324 89.8636 8.55323L88.9875 8.55322C88.6654 8.55322 88.4043 8.79126 88.4043 9.08491L88.4044 15.1705C88.4044 15.4641 88.6655 15.7022 88.9876 15.7022Z" fill="white"/>
<path d="M90.4469 7.02128C90.4469 7.58531 89.9896 8.04255 89.4256 8.04255C88.8615 8.04255 88.4043 7.58531 88.4043 7.02128C88.4043 6.45724 88.8615 6 89.4256 6C89.9896 6 90.4469 6.45724 90.4469 7.02128Z" fill="white"/>
<path d="M77.1423 13.6673L77.1397 13.6692L77.1371 13.6712C76.1385 14.4371 75.6382 15.4769 75.6382 16.7385C75.6382 17.6765 76.0238 18.4837 76.7594 19.1342C77.4783 19.77 78.8921 20.3309 80.2292 20.7237C80.9983 20.9496 81.6014 21.2021 81.8871 21.451C82.1607 21.6895 82.1812 22.2008 81.8859 22.4276C81.6777 22.5877 81.3564 22.6949 80.8608 22.6949H77.1948C76.5926 22.6949 76.1044 23.1831 76.1044 23.7853V24.8245C76.1044 25.4267 76.5926 25.9149 77.1948 25.9149H80.7943C82.2227 25.9149 83.4061 25.663 84.3638 24.8847L84.3648 24.8839C85.3519 24.0779 85.851 23.0235 85.851 21.7625C85.851 20.4883 85.3664 19.4696 84.3544 18.8014C83.9539 18.5369 83.5656 18.3555 83.0752 18.1365C82.3638 17.8187 81.5752 17.4885 80.5881 17.2287C79.9745 17.0672 79.5383 16.9313 79.344 16.7672C79.1038 16.5643 79.1482 16.1779 79.4307 16.0048C79.6528 15.8688 80.1028 15.8508 80.7611 15.8508H82.5675C83.1697 15.8508 83.6579 15.3626 83.6579 14.7603V13.7287C83.6579 13.1265 83.1697 12.6383 82.5675 12.6383L80.9605 12.6383C79.4356 12.6383 78.1465 12.9163 77.1423 13.6673Z" fill="white"/>
<path fill-rule="evenodd" clip-rule="evenodd" d="M50.1694 12.1277C48.6857 12.1277 47.5161 12.5295 46.4769 13.5392C45.4262 14.56 45 16.0815 45 17.5466L45 18.1188C45 22.2294 48.282 25.5639 52.3306 25.5639H53.3573C53.8782 25.5639 54.283 25.1104 54.224 24.5929L54.0672 23.2158C54.0096 22.71 53.5733 22.3379 53.0645 22.3207C-nan -nan -nan -nan -nan -nanC-nan -nan -nan -nan 53.0645 22.3207C-nan -nan -nan -nan 53.0645 22.3207C-nan -nan -nan -nan -nan -nanC-nan -nan -nan -nan 53.0645 22.3207Lnan nanL53.0645 22.3207C50.8406 22.2458 48.8587 21.5364 48.8587 17.5467C48.8588 16.4817 49.2407 15.4244 50.4099 15.4244H53.9063C54.9634 15.4244 55.8207 16.3327 55.8207 17.4152V23.7438V24.2971C55.8207 25.657 54.7349 26.7594 53.3955 26.7594H51.3492C50.9142 26.7594 50.5616 27.1174 50.5616 27.5591V29.2003C50.5616 29.642 50.9142 30 51.3492 30H54.4475C57.1263 30 59.2979 27.7952 59.2979 25.0754V16.5407C59.2979 14.1034 57.3519 12.1277 54.9514 12.1277H50.1694Z" fill="white"/>
<path d="M53.1702 20.0426C53.1702 19.6195 53.5131 19.2766 53.9361 19.2766C54.3592 19.2766 54.7021 19.6195 54.7021 20.0426C54.7021 20.4656 54.3592 20.8085 53.9361 20.8085C53.5131 20.8085 53.1702 20.4656 53.1702 20.0426Z" fill="white"/>
<defs>
<filter id="filter0_dd_6852_1269" x="0" y="0" width="38" height="38" filterUnits="userSpaceOnUse" color-interpolation-filters="sRGB">
<feFlood flood-opacity="0" result="BackgroundImageFix"/>
<feColorMatrix in="SourceAlpha" type="matrix" values="0 0 0 0 0 0 0 0 0 0 0 0 0 0 0 0 0 0 127 0" result="hardAlpha"/>
<feOffset dy="1"/>
<feGaussianBlur stdDeviation="1"/>
<feColorMatrix type="matrix" values="0 0 0 0 0.0627451 0 0 0 0 0.0941176 0 0 0 0 0.156863 0 0 0 0.06 0"/>
<feBlend mode="normal" in2="BackgroundImageFix" result="effect1_dropShadow_6852_1269"/>
<feColorMatrix in="SourceAlpha" type="matrix" values="0 0 0 0 0 0 0 0 0 0 0 0 0 0 0 0 0 0 127 0" result="hardAlpha"/>
<feOffset dy="1"/>
<feGaussianBlur stdDeviation="1.5"/>
<feColorMatrix type="matrix" values="0 0 0 0 0.0627451 0 0 0 0 0.0941176 0 0 0 0 0.156863 0 0 0 0.1 0"/>
<feBlend mode="normal" in2="effect1_dropShadow_6852_1269" result="effect2_dropShadow_6852_1269"/>
<feBlend mode="normal" in="SourceGraphic" in2="effect2_dropShadow_6852_1269" result="shape"/>
</filter>
<linearGradient id="paint0_linear_6852_1269" x1="19" y1="2" x2="19" y2="34" gradientUnits="userSpaceOnUse">
<stop stop-color="white"/>
<stop offset="1" stop-color="#D0D5DD"/>
</linearGradient>
</defs>
</svg>
